<?xml version="1.0" encoding="UTF-8" standalone="no"?>
<!-- Creator: CorelDRAW X5 -->

<svg
   xmlns:osb="http://www.openswatchbook.org/uri/2009/osb"
   xmlns:dc="http://purl.org/dc/elements/1.1/"
   xmlns:cc="http://creativecommons.org/ns#"
   xmlns:rdf="http://www.w3.org/1999/02/22-rdf-syntax-ns#"
   xmlns:svg="http://www.w3.org/2000/svg"
   xmlns="http://www.w3.org/2000/svg"
   xmlns:sodipodi="http://sodipodi.sourceforge.net/DTD/sodipodi-0.dtd"
   xmlns:inkscape="http://www.inkscape.org/namespaces/inkscape"
   xml:space="preserve"
   width="58.9138mm"
   height="70.5554mm"
   style="shape-rendering:geometricPrecision; text-rendering:geometricPrecision; image-rendering:optimizeQuality; fill-rule:evenodd; clip-rule:evenodd"
   viewBox="0 0 4362 5224"
   id="svg2"
   version="1.1"
   inkscape:version="0.91 r13725"
   sodipodi:docname="chikareli.svg"><metadata
     id="metadata14"><rdf:RDF><cc:Work
         rdf:about=""><dc:format>image/svg+xml</dc:format><dc:type
           rdf:resource="http://purl.org/dc/dcmitype/StillImage" /><dc:title></dc:title></cc:Work></rdf:RDF></metadata><sodipodi:namedview
     pagecolor="#ffffff"
     bordercolor="#666666"
     borderopacity="1"
     objecttolerance="10"
     gridtolerance="10"
     guidetolerance="10"
     inkscape:pageopacity="0"
     inkscape:pageshadow="2"
     inkscape:window-width="1366"
     inkscape:window-height="705"
     id="namedview12"
     showgrid="false"
     inkscape:zoom="1"
     inkscape:cx="148.73544"
     inkscape:cy="200.3926"
     inkscape:window-x="-8"
     inkscape:window-y="-8"
     inkscape:window-maximized="1"
     inkscape:current-layer="g4188" /><defs
     id="defs4"><linearGradient
       id="linearGradient5644"
       osb:paint="solid"><stop
         style="stop-color:#000000;stop-opacity:1;"
         offset="0"
         id="stop5646" /></linearGradient><style
       type="text/css"
       id="style6"><![CDATA[
    .fil0 {fill:black}
   ]]></style></defs><g
     inkscape:groupmode="layer"
     id="layer1"
     inkscape:label="Fon" /><g
     inkscape:groupmode="layer"
     id="layer2"
     inkscape:label="Icon"><rect
       style="clip-rule:evenodd;opacity:1;fill:#fafafa;fill-opacity:1;fill-rule:evenodd;stroke:#b4b4b4;stroke-width:62.68814087;stroke-linecap:round;stroke-linejoin:miter;stroke-miterlimit:4;stroke-dasharray:none;stroke-opacity:1;image-rendering:optimizeQuality;shape-rendering:geometricPrecision;text-rendering:geometricPrecision"
       id="rect5930"
       width="4952.3633"
       height="4952.3643"
       x="-97.581451"
       y="167.11263"
       ry="585.08923"
       rx="585.08923"
       inkscape:export-filename="C:\Users\Admin\Desktop\path41917.png"
       inkscape:export-xdpi="89.969299"
       inkscape:export-ydpi="89.969299" /><g
       style="clip-rule:evenodd;fill-rule:evenodd;image-rendering:optimizeQuality;shape-rendering:geometricPrecision;text-rendering:geometricPrecision"
       id="g4188"
       transform="translate(3137.5213,-4035.1634)"
       inkscape:export-filename="C:\Users\Admin\Desktop\path41917.png"
       inkscape:export-xdpi="89.969299"
       inkscape:export-ydpi="89.969299"><g
         id="g5964"
         transform="translate(-6018.0609,4241.8976)"
         inkscape:export-filename="C:\Users\Admin\Desktop\path41917.png"
         inkscape:export-xdpi="89.969299"
         inkscape:export-ydpi="89.969299"><g
           id="Capa_x0020_1"
           transform="matrix(0.47983892,0,0,0.45493425,4522.5099,1985.0516)"><metadata
             id="CorelCorpID_0Corel-Layer" /><path
             class="fil0"
             d="m 1522.1614,3056 c 81,0 147,118 190,176 62,82 102,127 150,216 l -653,0 c 20,-76 259,-392 313,-392 z M -566.83857,2403 c 32,387 550.000002,1232 842,1535 117,122 168,217 281,293 -20,-75 -65,-111 -110,-178 -46,-68 -83,-124 -125,-188 -88,-131 -159,-247 -234.999998,-392 138.999998,37 244.999998,261 574.999998,261 l 0,-26 c -287,0 -658.9999977,-377 -810,-679 l -157,-366 c 100,27 82,42 136,125 38,59 67,97 105.000002,156 357.999998,565 267.999998,476 1090.999968,476 l 0,26 c -134.99997,0 -55.99997,-4 -77.99997,52 282.99997,66 888.99997,67 1174.99997,0 -22,-59 54,-52 -78,-52 l 0,-26 c 871,0 717,108 1196,-632 54,-83 36,-99 136,-125 -27,57 -37,101 -69,166 -92,186 -189,453 -390,602 -66,49 -73,68 -146,115 -76,49 -255,161 -361,161 l 0,26 c 291,0 418,-182 575,-287 -26,111 -270,481 -350,590 -52,71 -96,103 -120,193 58,-39 296,-309 350,-381 212,-283 262,-321 451,-646 290,-498 223,-568 322,-775 -42,11 -435,396 -1086,-11 -269,-168 -276,51 64,171 100,35 314,98 448,101 -106,158 -205,254 -277,350 -38,50 -60,77 -89,120 -167,0 -448,-8 -573,-54 -96,-35 -213,-191 -263,-286 -446,104 -232,98 -653,0 -223.99997,335 -292.99997,340 -835.99997,340 -46,-69 -128,-161 -190,-228 L 8.1614323,2688 C 196.16143,2684 762.16143,2526 698.16143,2388 c -74,-158 -111,125 -774.999998,217 -270.000002,37 -427.000002,-162 -490.000002,-204 z m 3055.99997,1828 8,8 c -1,-1 -5,-10 -8,-8 z m -1932.99997,26 c 3,3 8,-11 8,-8 0,1 3,-3 3,-3 l -11,11 z M 2097.1614,313 c 156,-36 367,-131 575,-131 l 0,26 c -179,0 -784,301 -784,548 69,33 28,24 131,26 -34,147 -127,316 -131,470 81,-54 315,-371 496,-497 627,-436 965,-198 1228,-176 -271,-417 -308,-581 -810,-581 -160,0 -285,51 -392,104 -92,46 -258,134 -313,209 z M -462.83857,574 c 227,-19 559.000002,-255 1145,187 255,192 285,279 424.99997,437 35,40 17,34 75,55 -14,-169 -95,-316 -131,-470 466,-10 -412.99997,-575 -652.99997,-575 l 0,-26 c 119,0 466,91 548,131 -54,-148 -508,-313 -679,-313 -331.999998,40 -559,148 -731,575 z m 3917.99997,914 c 112,26 138,79 235,104 -53,-80 -105,-104 -183,-157 46,-68 96,-110 104,-209 -44,32 -181,318 -381,42 -51,-70 -72,-97 -134,-153 -107,-98 -255,-123 -451,-123 l 0,104 c 148,0 255,-5 377,94 311,252 65,350 -377,350 l 0,131 c 496,0 431,-131 679,-131 196,0 276,105 392,183 -29,-109 -88,-120 -201,-191 l -61,-44 z m -784,-340 c -220,0 -308,8 -470,131 -29,-21 -80,-21 145,-116 84,-35 133,-47 220,-67 l 0,-78 c -652,15 -838,627 0,627 l 0,-104 c -113,-3 -246,-52 -340,-52 l 0,-26 c 153,0 581,145 914,-78 -87,-165 -272,-235 -470,-235 z m -3316.99997,575 c 216,-145 175,-183 444,-183 154.000002,0 141.000002,131 627,131 l 0,-131 c -113,0 -195,-14 -308,-32 -475,-71 -86.999998,-412 308,-412 l 0,-104 c -637,0 -506.999998,392 -784,392 -92,0 -141,-133 -209,-183 31,132 70,145 131,235 -78,52 -129,77 -183,157 63,-17 71,-24 139,-70 46,-31 20,-13 44,-34 58,42 39,5 -105,104 -66,45 -81,47 -104,131 z m 576.000002,-347 c 18,52 471.999998,146 656.999998,118 54,-8 231,-32 255,-32 l 0,26 c -94,0 -227,50 -340,52 l 0,104 c 175,0 412,-54 527.99997,-177 l 47,-58 c -36,-153 -65,-204 -192.99997,-278 -73,-42 -280,-112 -382,-114 l 0,78 c 109,25 279,26 338,159 -141,-91 -207,-106 -442,-106 -293,0 -486.999998,175 -467.999998,227 z M 764.16143,2481 c 0,111 8,131 78,183 -45,-195 -51,-199 111,-359 66.99997,-66 104.99997,-137 201.99997,-163 0,322 -166.99997,679 418,679 496,0 340,-498 340,-679 87,23 340,269 340,366 0,98 -17,49 -26,157 258,-189 -142,-491 -261,-757 -52,-115 -77,-195 -106,-338 -64,-316 37,-311 -76,-394 0,198 -26,284 -26,470 0,359 52,642 52,993 -191,128 -591,121 -570,-124 1,-14 30,-159 38,-199 l 38,-670 c -3,-144 -27,-143 -27,-469 -74,55 -53,21 -53,156 -1,333 -112,592 -304.99997,844 -60,78 -164,189 -164,306 z m 600.99997,1593 c 0,205 -25,182 -47,318 -19,119 37,660 152,831 l 131,0 c 73,-108 78,-169 102,-316 81,-510 53,-352 -4,-749 -24,-167 77,-164 112,-293 l -548,0 c 25,95 104,145 104,209 z m 522,-1254 c 129,-30 176,-7 209,-131 -55,-46 -132,-13 -168,15 -61,46 -38,-1 -41,116 z m -705,0 c -11,-128 -73,-154 -208.99997,-157 12,149 74.99997,126 208.99997,157 z"
             id="path10"
             inkscape:connector-curvature="0"
             style="fill:#000000" /></g><g
           id="g4162"
           transform="matrix(1.1415946,0,0,0.98682429,2150.9703,-267.25199)"><path
             style="fill:#cc0000;stroke:none;stroke-opacity:1"
             inkscape:connector-curvature="0"
             id="path10-4"
             d="m 3636.4576,1659.7932 c -16.3198,54.7686 -39.4517,124.7703 -142.511,177.6582 -15.0243,7.7106 -20.7498,-4.9106 -13.8332,-16.7586 38.9502,-66.2405 45.8668,-82.7901 57.1925,-108.9102 15.8392,-38.2189 24.1349,-92.5695 -7.3554,-205.9096 -61.9777,-223.0445 -191.2824,-521.18931 -285.2729,-617.91711 -90.6888,-93.3636 -255.0571,-119.609 -403.5862,-81.4946 -54.7058,14.0212 -161.7563,69.6883 -360.2269,24.9917 -343.5519,-77.3781 -394.4338,94.6382 -414.097,169.52961 -19.7677,74.9959 -67.0763,287.9476 -67.0763,287.9476 -15.7974,86.7813 -36.4427,237.5881 496.9498,339.2055 248.5167,47.3087 261.117,111.5222 272.1083,157.7234 19.7468,82.7692 51.258,130.1615 86.7604,153.8368 35.4815,23.717 0,43.3175 -39.3891,47.3295 -105.8384,10.9913 -496.9707,-101.1995 -728.3526,-232.6775 -189.339,-115.7015 -192.4944,-219.8682 -149.156,-308.2376 -285.9623,-30.9262 -500.6065,26.7887 -539.4941,162.1951 -66.7837,232.3222 510.783,629.2009 1168.4861,828.3612 690.2173,208.9605 1400.1187,63.0642 1479.043,-370.7795 35.774,-197.0916 -130.2032,-342.9042 -410.1894,-406.0521 z M 2777.2958,920.44919 c -8.045,1.0657 -8.4838,-6.5195 -2.3195,-9.5286 37.5084,-18.284 91.9635,-35.0008 154.986,-41.4159 23.111,-2.2777 43.8817,-3.4061 64.5897,-3.03 105.6504,1.9434 190.1958,44.4041 188.9629,93.7397 -1.2537,49.44011 -87.8679,87.55451 -193.5392,85.19321 -34.1859,-0.8149 -66.2822,-5.7464 -93.9277,-13.7078 -3.2389,-0.8567 -5.621,-3.6359 -5.621,-6.9166 0,-3.3016 2.3821,-6.1434 5.7046,-6.9793 65.9061,-15.2541 110.3729,-40.14131 107.2385,-63.71201 -4.1374,-31.2187 -90.3336,-48.1863 -192.5571,-37.9472 -11.2002,1.1701 -27.729,3.5523 -33.5172,4.3045 z m -199.1393,314.50651 c -190.363,13.7914 -210.1307,34.3531 -245.7794,72.3212 -50.2758,53.5566 -116.5163,-69.4793 -116.5163,-69.4793 -39.7234,-8.3585 -87.9097,-72.4675 -61.9359,-132.3138 25.6186,-59.1568 72.9272,-41.416 87.7425,-23.0066 18.0124,22.4424 56.5238,59.1568 106.4863,57.8194 49.9624,-1.3164 107.6146,-11.8063 188.0226,-11.8063 81.4528,0 136.2631,30.4247 139.3348,56.5656 2.6538,22.317 -6.6031,43.3384 -97.3337,49.8998" /></g></g></g></g></svg>